<svg width="22" height="26" viewBox="0 0 22 26" fill="none" xmlns="http://www.w3.org/2000/svg">
<path d="M20.1226 22.308C20.7679 21.3369 21.3165 20.305 21.7606 19.227C20.7648 18.8452 19.8982 18.1879 19.2623 17.3317C18.6263 16.4755 18.2473 15.456 18.1696 14.3923C18.0919 13.3286 18.3186 12.2648 18.8233 11.3253C19.328 10.3858 20.0898 9.60938 21.0196 9.08694C20.4514 8.32254 19.7205 7.69393 18.8796 7.24653C18.0388 6.79913 17.109 6.54412 16.1576 6.49994C15.1675 6.51108 14.1901 6.72338 13.2846 7.12394C12.6663 7.40416 11.9999 7.56304 11.3216 7.59194C10.5652 7.55337 9.82144 7.38174 9.1246 7.08494C8.27942 6.72888 7.37619 6.53061 6.45959 6.49994C5.37813 6.55874 4.32766 6.88231 3.40055 7.44221C2.47344 8.0021 1.69806 8.78118 1.14258 9.71095C-0.703423 12.571 -0.378423 17.927 2.59988 22.503C3.66588 24.141 5.09589 25.974 6.95489 26C7.59898 25.9953 8.23236 25.8347 8.80089 25.532C9.58568 25.1321 10.4552 24.927 11.3359 24.934C12.2132 24.9204 13.0801 25.1259 13.8579 25.532C14.4124 25.8348 15.0332 25.9956 15.6649 26C17.5499 25.974 19.0566 23.946 20.1226 22.308Z" fill="#323232"/>
<path d="M15.8839 0C15.9544 0.68304 15.8896 1.37327 15.6933 2.03129C15.497 2.6893 15.1731 3.30221 14.7399 3.83501C14.3148 4.39747 13.7674 4.85593 13.139 5.17574C12.5107 5.49554 11.8178 5.66832 11.1129 5.68101C11.0355 5.00984 11.0996 4.32989 11.3011 3.68502C11.5027 3.04015 11.8371 2.44468 12.2829 1.937C13.1993 0.86439 14.4838 0.173431 15.8839 0Z" fill="#323232"/>
</svg>
