<svg width="109" height="115" viewBox="0 0 109 115" fill="none" xmlns="http://www.w3.org/2000/svg">
<path d="M98.6125 95.22C102.858 90.2079 105.421 83.7296 105.421 76.6667C105.421 60.811 92.5271 47.9167 76.6715 47.9167C60.8158 47.9167 47.9215 60.811 47.9215 76.6667C47.9215 92.5223 60.8158 105.417 76.6715 105.417C83.7392 105.417 90.4927 102.745 95.5 98.5C94.8867 98.5 94.9485 98.5 95.5 98.5C96.5 97.5 98.1429 95.6848 98.6125 95.22C99.2511 94.4389 98.9132 94.9224 98.6125 95.22ZM76.6667 100.625C63.456 100.625 52.7083 89.8773 52.7083 76.6667C52.7083 63.456 63.456 52.7083 76.6667 52.7083C89.8773 52.7083 100.625 63.456 100.625 76.6667C100.625 89.8773 89.8773 100.625 76.6667 100.625ZM55.1042 110.208H21.5625C12.3146 110.208 4.79167 102.685 4.79167 93.4375V21.5625C4.79167 12.3146 12.3146 4.79167 21.5625 4.79167H47.9885C49.589 4.79167 51.1702 4.93542 52.7083 5.20854V31.1458C52.7083 37.7487 58.0846 43.125 64.6875 43.125H92.5415C93.2794 43.125 93.979 42.7848 94.4342 42.2002C94.8894 41.6156 95.0427 40.8538 94.8606 40.135C93.4758 34.7204 90.6583 29.7706 86.7052 25.8223L70.0063 9.12333C64.1221 3.23917 56.3021 0 47.9838 0H21.5577C9.67438 0 0 9.67438 0 21.5625V93.4375C0 105.326 9.67438 115 21.5625 115H55.1042C56.4267 115 57.5 113.927 57.5 112.604C57.5 111.282 56.4267 110.208 55.1042 110.208ZM57.5 6.555C60.8829 7.85833 63.9831 9.87083 66.6233 12.511L83.3223 29.21C85.9194 31.8071 87.9415 34.9217 89.264 38.3333H64.6875C60.7248 38.3333 57.5 35.1085 57.5 31.1458V6.555ZM45.5208 52.7083H21.5625C20.24 52.7083 19.1667 51.635 19.1667 50.3125C19.1667 48.99 20.24 47.9167 21.5625 47.9167H45.5208C46.8433 47.9167 47.9167 48.99 47.9167 50.3125C47.9167 51.635 46.8433 52.7083 45.5208 52.7083ZM19.1667 69.4792C19.1667 68.1567 20.24 67.0833 21.5625 67.0833H35.9375C37.26 67.0833 38.3333 68.1567 38.3333 69.4792C38.3333 70.8017 37.26 71.875 35.9375 71.875H21.5625C20.24 71.875 19.1667 70.8017 19.1667 69.4792ZM19.1667 88.6458C19.1667 87.3233 20.24 86.25 21.5625 86.25H38.3333C39.6558 86.25 40.7292 87.3233 40.7292 88.6458C40.7292 89.9683 39.6558 91.0417 38.3333 91.0417H21.5625C20.24 91.0417 19.1667 89.9683 19.1667 88.6458Z" fill="#323232"/>
<path d="M66.376 89L74.8525 77.584L66.376 66.0996H71.2295L77.3477 74.9521L83.3975 66.0996H88.251L79.5352 77.7549L88.251 89H83.3975L77.04 80.4551L70.9561 89H66.376Z" fill="#323232"/>
</svg>
