<svg width="24" height="24" viewBox="0 0 24 24" fill="none" xmlns="http://www.w3.org/2000/svg">
<path d="M12.9404 3.65274L13.8691 3.81094L14.7744 4.07169L15.6445 4.43204L16.4688 4.88712L17.2373 5.43301L17.9395 6.05997L18.5674 6.76309L19.1123 7.53067L19.5674 8.35587L19.9287 9.22598L20.1895 10.1313L20.3467 11.06L20.3994 12.0004L20.3467 12.9408L20.1895 13.8695L19.9287 14.7748L19.5674 15.6449L19.1123 16.4691L18.5674 17.2377L17.9395 17.9398L17.2373 18.5678L16.4688 19.1127L15.6445 19.5678L14.7744 19.9291L13.8691 20.1898L12.9404 20.3471L12 20.3998L11.0596 20.3471L10.1309 20.1898L9.22559 19.9291L8.35547 19.5678L7.53027 19.1127L6.7627 18.5678L6.05957 17.9398L5.43262 17.2377L4.88672 16.4691L4.43164 15.6449L4.07129 14.7748L3.81055 13.8695L3.65234 12.9408L3.59961 12.0004L3.65234 11.06L3.81055 10.1313L4.07129 9.22598L4.43164 8.35587L4.88672 7.53067L5.43262 6.76309L6.05957 6.05997L6.7627 5.43301L7.53027 4.88712L8.35547 4.43204L9.22559 4.07169L10.1309 3.81094L11.0596 3.65274L12 3.60001L12.9404 3.65274Z" fill="#1E3A8A"/>
<path d="M12.9404 3.65274L13.1084 2.66694C13.0713 2.66063 13.0339 2.65641 12.9964 2.65431L12.9404 3.65274ZM13.8691 3.81094L14.1459 2.85001C14.1101 2.8397 14.0738 2.8314 14.0371 2.82514L13.8691 3.81094ZM14.7744 4.07169L15.157 3.14778C15.1225 3.13347 15.0871 3.12111 15.0512 3.11075L14.7744 4.07169ZM15.6445 4.43204L16.1279 3.55661C16.0952 3.53859 16.0616 3.5224 16.0272 3.50813L15.6445 4.43204ZM16.4688 4.88712L17.0478 4.07184C17.0171 4.05 16.9851 4.02992 16.9521 4.01169L16.4688 4.88712ZM17.2373 5.43301L17.9033 4.68709C17.8757 4.66238 17.8466 4.63923 17.8164 4.61774L17.2373 5.43301ZM17.9395 6.05997L18.6853 5.39387C18.6602 5.36578 18.6336 5.33913 18.6055 5.31405L17.9395 6.05997ZM18.5674 6.76309L19.3828 6.18421C19.3613 6.15387 19.338 6.12475 19.3132 6.09699L18.5674 6.76309ZM19.1123 7.53067L19.988 7.04776C19.9697 7.01465 19.9496 6.98261 19.9277 6.95179L19.1123 7.53067ZM19.5674 8.35587L20.4909 7.97235C20.4768 7.93836 20.4608 7.90518 20.4431 7.87295L19.5674 8.35587ZM19.9287 9.22598L20.8896 8.94921C20.8792 8.91295 20.8667 8.87732 20.8522 8.84247L19.9287 9.22598ZM20.1895 10.1313L21.1754 9.96434C21.1691 9.92728 21.1608 9.8906 21.1504 9.85448L20.1895 10.1313ZM20.3467 11.06L21.3451 11.004C21.343 10.9668 21.3389 10.9298 21.3326 10.893L20.3467 11.06ZM20.3994 12.0004L21.3978 12.0564C21.3999 12.0191 21.3999 11.9817 21.3978 11.9444L20.3994 12.0004ZM20.3467 12.9408L21.3326 13.1077C21.3389 13.071 21.343 13.034 21.3451 12.9968L20.3467 12.9408ZM20.1895 13.8695L21.1504 14.1463C21.1608 14.1102 21.1691 14.0735 21.1754 14.0365L20.1895 13.8695ZM19.9287 14.7748L20.8522 15.1583C20.8667 15.1235 20.8792 15.0878 20.8896 15.0516L19.9287 14.7748ZM19.5674 15.6449L20.4428 16.1283C20.4607 16.0959 20.4767 16.0626 20.4909 16.0284L19.5674 15.6449ZM19.1123 16.4691L19.9281 17.0475C19.9497 17.017 19.9696 16.9853 19.9877 16.9525L19.1123 16.4691ZM18.5674 17.2377L19.3128 17.9043C19.3379 17.8763 19.3614 17.8468 19.3831 17.8161L18.5674 17.2377ZM17.9395 17.9398L18.6061 18.6853C18.6338 18.6605 18.6601 18.6342 18.6849 18.6065L17.9395 17.9398ZM17.2373 18.5678L17.8157 19.3835C17.8464 19.3618 17.8759 19.3383 17.9039 19.3132L17.2373 18.5678ZM16.4688 19.1127L16.9521 19.9881C16.9849 19.97 17.0166 19.9501 17.0471 19.9285L16.4688 19.1127ZM15.6445 19.5678L16.028 20.4913C16.0622 20.4771 16.0955 20.4611 16.1279 20.4432L15.6445 19.5678ZM14.7744 19.9291L15.0512 20.89C15.0874 20.8796 15.1231 20.8671 15.1579 20.8526L14.7744 19.9291ZM13.8691 20.1898L14.0361 21.1758C14.0731 21.1695 14.1098 21.1612 14.1459 21.1508L13.8691 20.1898ZM12.9404 20.3471L12.9964 21.3455C13.0336 21.3434 13.0706 21.3393 13.1074 21.333L12.9404 20.3471ZM12 20.3998L11.944 21.3982C11.9813 21.4003 12.0187 21.4003 12.056 21.3982L12 20.3998ZM11.0596 20.3471L10.8927 21.333C10.9294 21.3393 10.9664 21.3434 11.0036 21.3455L11.0596 20.3471ZM10.1309 20.1898L9.85409 21.1508C9.8902 21.1612 9.92688 21.1695 9.96394 21.1758L10.1309 20.1898ZM9.22559 19.9291L8.84207 20.8526C8.87692 20.8671 8.91256 20.8796 8.94881 20.89L9.22559 19.9291ZM8.35547 19.5678L7.87256 20.4434C7.90478 20.4612 7.93797 20.4772 7.97196 20.4913L8.35547 19.5678ZM7.53027 19.1127L6.95139 19.9281C6.98222 19.95 7.01426 19.9701 7.04736 19.9884L7.53027 19.1127ZM6.7627 18.5678L6.0966 19.3136C6.12435 19.3384 6.15347 19.3617 6.18381 19.3832L6.7627 18.5678ZM6.05957 17.9398L5.31365 18.6059C5.33873 18.634 5.36538 18.6606 5.39347 18.6857L6.05957 17.9398ZM5.43262 17.2377L4.61735 17.8168C4.63883 17.847 4.66199 17.8761 4.6867 17.9037L5.43262 17.2377ZM4.88672 16.4691L4.01129 16.9525C4.02952 16.9855 4.04961 17.0175 4.07145 17.0482L4.88672 16.4691ZM4.43164 15.6449L3.50774 16.0276C3.52201 16.062 3.53819 16.0956 3.55621 16.1283L4.43164 15.6449ZM4.07129 14.7748L3.11035 15.0516C3.12071 15.0875 3.13307 15.1229 3.14739 15.1574L4.07129 14.7748ZM3.81055 13.8695L2.82475 14.0375C2.831 14.0742 2.8393 14.1105 2.84961 14.1463L3.81055 13.8695ZM3.65234 12.9408L2.65391 12.9968C2.65602 13.0343 2.66023 13.0717 2.66654 13.1088L3.65234 12.9408ZM3.59961 12.0004L2.60118 11.9444C2.59909 11.9817 2.59909 12.0191 2.60118 12.0564L3.59961 12.0004ZM3.65234 11.06L2.66654 10.892C2.66023 10.9291 2.65602 10.9665 2.65391 11.004L3.65234 11.06ZM3.81055 10.1313L2.84961 9.85448C2.8393 9.89027 2.831 9.92661 2.82475 9.96333L3.81055 10.1313ZM4.07129 9.22598L3.14739 8.84336C3.13307 8.87792 3.12071 8.91326 3.11035 8.94921L4.07129 9.22598ZM4.43164 8.35587L3.55597 7.87295C3.53805 7.90546 3.52194 7.93894 3.50774 7.97324L4.43164 8.35587ZM4.88672 7.53067L4.0718 6.9511C4.04972 6.98214 4.02944 7.01441 4.01105 7.04776L4.88672 7.53067ZM5.43262 6.76309L4.68624 6.09757C4.66183 6.12494 4.63895 6.15364 4.61769 6.18352L5.43262 6.76309ZM6.05957 6.05997L5.39405 5.31359C5.36558 5.33898 5.33858 5.36597 5.31319 5.39445L6.05957 6.05997ZM6.7627 5.43301L6.18313 4.61809C6.15324 4.63935 6.12455 4.66223 6.09717 4.68664L6.7627 5.43301ZM7.53027 4.88712L7.04736 4.01145C7.01401 4.02984 6.98174 4.05012 6.9507 4.07219L7.53027 4.88712ZM8.35547 4.43204L7.97284 3.50813C7.93854 3.52234 7.90506 3.53844 7.87256 3.55637L8.35547 4.43204ZM9.22559 4.07169L8.94881 3.11075C8.91286 3.12111 8.87752 3.13347 8.84296 3.14778L9.22559 4.07169ZM10.1309 3.81094L9.96293 2.82514C9.92621 2.8314 9.88988 2.8397 9.85409 2.85001L10.1309 3.81094ZM11.0596 3.65274L11.0036 2.65431C10.9661 2.65641 10.9287 2.66063 10.8916 2.66694L11.0596 3.65274ZM12 3.60001L12.056 2.60157C12.0187 2.59948 11.9813 2.59948 11.944 2.60157L12 3.60001ZM12.9404 3.65274L12.7725 4.63854L13.7012 4.79674L13.8691 3.81094L14.0371 2.82514L13.1084 2.66694L12.9404 3.65274ZM13.8691 3.81094L13.5924 4.77188L14.4976 5.03262L14.7744 4.07169L15.0512 3.11075L14.1459 2.85001L13.8691 3.81094ZM14.7744 4.07169L14.3918 4.99559L15.2619 5.35594L15.6445 4.43204L16.0272 3.50813L15.157 3.14778L14.7744 4.07169ZM15.6445 4.43204L15.1612 5.30746L15.9854 5.76254L16.4688 4.88712L16.9521 4.01169L16.1279 3.55661L15.6445 4.43204ZM16.4688 4.88712L15.8897 5.70239L16.6582 6.24828L17.2373 5.43301L17.8164 4.61774L17.0478 4.07184L16.4688 4.88712ZM17.2373 5.43301L16.5713 6.17893L17.2734 6.80589L17.9395 6.05997L18.6055 5.31405L17.9033 4.68709L17.2373 5.43301ZM17.9395 6.05997L17.1936 6.72607L17.8215 7.42919L18.5674 6.76309L19.3132 6.09699L18.6853 5.39387L17.9395 6.05997ZM18.5674 6.76309L17.752 7.34197L18.2969 8.10955L19.1123 7.53067L19.9277 6.95179L19.3828 6.18421L18.5674 6.76309ZM19.1123 7.53067L18.2366 8.01358L18.6917 8.83878L19.5674 8.35587L20.4431 7.87295L19.988 7.04776L19.1123 7.53067ZM19.5674 8.35587L18.6438 8.73938L19.0052 9.60949L19.9287 9.22598L20.8522 8.84247L20.4909 7.97235L19.5674 8.35587ZM19.9287 9.22598L18.9678 9.50276L19.2285 10.408L20.1895 10.1313L21.1504 9.85448L20.8896 8.94921L19.9287 9.22598ZM20.1895 10.1313L19.2035 10.2982L19.3607 11.2269L20.3467 11.06L21.3326 10.893L21.1754 9.96434L20.1895 10.1313ZM20.3467 11.06L19.3482 11.116L19.401 12.0564L20.3994 12.0004L21.3978 11.9444L21.3451 11.004L20.3467 11.06ZM20.3994 12.0004L19.401 11.9444L19.3482 12.8848L20.3467 12.9408L21.3451 12.9968L21.3978 12.0564L20.3994 12.0004ZM20.3467 12.9408L19.3607 12.7739L19.2035 13.7026L20.1895 13.8695L21.1754 14.0365L21.3326 13.1077L20.3467 12.9408ZM20.1895 13.8695L19.2285 13.5928L18.9678 14.498L19.9287 14.7748L20.8896 15.0516L21.1504 14.1463L20.1895 13.8695ZM19.9287 14.7748L19.0052 14.3913L18.6438 15.2614L19.5674 15.6449L20.4909 16.0284L20.8522 15.1583L19.9287 14.7748ZM19.5674 15.6449L18.692 15.1616L18.2369 15.9858L19.1123 16.4691L19.9877 16.9525L20.4428 16.1283L19.5674 15.6449ZM19.1123 16.4691L18.2965 15.8908L17.7516 16.6593L18.5674 17.2377L19.3831 17.8161L19.9281 17.0475L19.1123 16.4691ZM18.5674 17.2377L17.822 16.5711L17.194 17.2732L17.9395 17.9398L18.6849 18.6065L19.3128 17.9043L18.5674 17.2377ZM17.9395 17.9398L17.2728 17.1944L16.5707 17.8224L17.2373 18.5678L17.9039 19.3132L18.6061 18.6853L17.9395 17.9398ZM17.2373 18.5678L16.6589 17.752L15.8904 18.2969L16.4688 19.1127L17.0471 19.9285L17.8157 19.3835L17.2373 18.5678ZM16.4688 19.1127L15.9854 18.2373L15.1612 18.6924L15.6445 19.5678L16.1279 20.4432L16.9521 19.9881L16.4688 19.1127ZM15.6445 19.5678L15.261 18.6442L14.3909 19.0056L14.7744 19.9291L15.1579 20.8526L16.028 20.4913L15.6445 19.5678ZM14.7744 19.9291L14.4976 18.9682L13.5924 19.2289L13.8691 20.1898L14.1459 21.1508L15.0512 20.89L14.7744 19.9291ZM13.8691 20.1898L13.7022 19.2039L12.7735 19.3611L12.9404 20.3471L13.1074 21.333L14.0361 21.1758L13.8691 20.1898ZM12.9404 20.3471L12.8844 19.3486L11.944 19.4014L12 20.3998L12.056 21.3982L12.9964 21.3455L12.9404 20.3471ZM12 20.3998L12.056 19.4014L11.1156 19.3486L11.0596 20.3471L11.0036 21.3455L11.944 21.3982L12 20.3998ZM11.0596 20.3471L11.2265 19.3611L10.2978 19.2039L10.1309 20.1898L9.96394 21.1758L10.8927 21.333L11.0596 20.3471ZM10.1309 20.1898L10.4076 19.2289L9.50236 18.9682L9.22559 19.9291L8.94881 20.89L9.85409 21.1508L10.1309 20.1898ZM9.22559 19.9291L9.6091 19.0056L8.73898 18.6442L8.35547 19.5678L7.97196 20.4913L8.84207 20.8526L9.22559 19.9291ZM8.35547 19.5678L8.83838 18.6921L8.01319 18.237L7.53027 19.1127L7.04736 19.9884L7.87256 20.4434L8.35547 19.5678ZM7.53027 19.1127L8.10915 18.2973L7.34158 17.7524L6.7627 18.5678L6.18381 19.3832L6.95139 19.9281L7.53027 19.1127ZM6.7627 18.5678L7.42879 17.8219L6.72567 17.194L6.05957 17.9398L5.39347 18.6857L6.0966 19.3136L6.7627 18.5678ZM6.05957 17.9398L6.80549 17.2738L6.17854 16.5717L5.43262 17.2377L4.6867 17.9037L5.31365 18.6059L6.05957 17.9398ZM5.43262 17.2377L6.24789 16.6586L5.70199 15.8901L4.88672 16.4691L4.07145 17.0482L4.61735 17.8168L5.43262 17.2377ZM4.88672 16.4691L5.76215 15.9858L5.30707 15.1616L4.43164 15.6449L3.55621 16.1283L4.01129 16.9525L4.88672 16.4691ZM4.43164 15.6449L5.35554 15.2623L4.99519 14.3922L4.07129 14.7748L3.14739 15.1574L3.50774 16.0276L4.43164 15.6449ZM4.07129 14.7748L5.03222 14.498L4.77148 13.5928L3.81055 13.8695L2.84961 14.1463L3.11035 15.0516L4.07129 14.7748ZM3.81055 13.8695L4.79635 13.7016L4.63814 12.7729L3.65234 12.9408L2.66654 13.1088L2.82475 14.0375L3.81055 13.8695ZM3.65234 12.9408L4.65078 12.8848L4.59804 11.9444L3.59961 12.0004L2.60118 12.0564L2.65391 12.9968L3.65234 12.9408ZM3.59961 12.0004L4.59804 12.0564L4.65078 11.116L3.65234 11.06L2.65391 11.004L2.60118 11.9444L3.59961 12.0004ZM3.65234 11.06L4.63814 11.2279L4.79635 10.2992L3.81055 10.1313L2.82475 9.96333L2.66654 10.892L3.65234 11.06ZM3.81055 10.1313L4.77148 10.408L5.03222 9.50276L4.07129 9.22598L3.11035 8.94921L2.84961 9.85448L3.81055 10.1313ZM4.07129 9.22598L4.99519 9.60861L5.35554 8.73849L4.43164 8.35587L3.50774 7.97324L3.14739 8.84336L4.07129 9.22598ZM4.43164 8.35587L5.30731 8.83878L5.76239 8.01358L4.88672 7.53067L4.01105 7.04776L3.55597 7.87295L4.43164 8.35587ZM4.88672 7.53067L5.70164 8.11024L6.24754 7.34266L5.43262 6.76309L4.61769 6.18352L4.0718 6.9511L4.88672 7.53067ZM5.43262 6.76309L6.179 7.42861L6.80595 6.72549L6.05957 6.05997L5.31319 5.39445L4.68624 6.09757L5.43262 6.76309ZM6.05957 6.05997L6.72509 6.80635L7.42822 6.17939L6.7627 5.43301L6.09717 4.68664L5.39405 5.31359L6.05957 6.05997ZM6.7627 5.43301L7.34226 6.24794L8.10984 5.70204L7.53027 4.88712L6.9507 4.07219L6.18313 4.61809L6.7627 5.43301ZM7.53027 4.88712L8.01319 5.76278L8.83838 5.30771L8.35547 4.43204L7.87256 3.55637L7.04736 4.01145L7.53027 4.88712ZM8.35547 4.43204L8.7381 5.35594L9.60821 4.99559L9.22559 4.07169L8.84296 3.14778L7.97284 3.50813L8.35547 4.43204ZM9.22559 4.07169L9.50236 5.03262L10.4076 4.77188L10.1309 3.81094L9.85409 2.85001L8.94881 3.11075L9.22559 4.07169ZM10.1309 3.81094L10.2988 4.79674L11.2275 4.63854L11.0596 3.65274L10.8916 2.66694L9.96293 2.82514L10.1309 3.81094ZM11.0596 3.65274L11.1156 4.65117L12.056 4.59844L12 3.60001L11.944 2.60157L11.0036 2.65431L11.0596 3.65274ZM12 3.60001L11.944 4.59844L12.8844 4.65117L12.9404 3.65274L12.9964 2.65431L12.056 2.60157L12 3.60001Z" fill="#1E3A8A"/>
<path d="M7.56985 12.0546L9.81993 14.326C10.2086 14.7184 10.8388 14.7184 11.2275 14.326L16.4314 9.07273" stroke="#F4F5F9" stroke-width="2" stroke-linecap="round" stroke-linejoin="round"/>
</svg>
