<svg width="26" height="26" viewBox="0 0 26 26" fill="none" xmlns="http://www.w3.org/2000/svg">
<mask id="mask0_1_252" style="mask-type:luminance" maskUnits="userSpaceOnUse" x="0" y="0" width="26" height="26">
<path d="M5.87158 0H20.1284C21.6843 0.00448691 23.1752 0.627422 24.2753 1.73272C25.3755 2.83801 25.9955 4.33583 26 5.89895V20.1032C25.995 21.6659 25.3747 23.1632 24.2746 24.268C23.1745 25.3729 21.6839 25.9955 20.1284 26H5.87158C4.31608 25.9955 2.82553 25.3729 1.72542 24.268C0.625316 23.1632 0.00502399 21.6659 0 20.1032V5.89895C0.0044661 4.33583 0.624512 2.83801 1.72468 1.73272C2.82485 0.627422 4.31572 0.00448691 5.87158 0Z" fill="white"/>
</mask>
<g mask="url(#mask0_1_252)">
<path d="M17.3932 16.7341L17.9688 12.9588H14.3548V10.5078C14.3548 9.4747 14.8584 8.46922 16.4707 8.46922H18.1211V5.25509C17.1588 5.09889 16.1864 5.01363 15.2118 5C12.2495 5 10.3008 6.80688 10.3008 10.0805V12.9588H7V16.7341H10.3008V25.996H14.3548V16.7341H17.3932Z" fill="#518EF8"/>
</g>
</svg>
