<svg width="26" height="26" viewBox="0 0 26 26" fill="none" xmlns="http://www.w3.org/2000/svg">
<path d="M5.76236 15.7131L4.8573 19.0918L1.54934 19.1618C0.560747 17.3282 0 15.2303 0 13.0009C0 10.8451 0.524285 8.81215 1.45362 7.02209H1.45433L4.39934 7.56202L5.68943 10.4894C5.41942 11.2766 5.27225 12.1216 5.27225 13.0009C5.27235 13.9552 5.44522 14.8696 5.76236 15.7131Z" fill="#FBBB00"/>
<path d="M25.7729 10.572C25.9222 11.3584 26.0001 12.1706 26.0001 13.0007C26.0001 13.9314 25.9022 14.8393 25.7158 15.7151C25.0829 18.6952 23.4293 21.2974 21.1385 23.1389L21.1378 23.1382L17.4284 22.9489L16.9034 19.6716C18.4234 18.7802 19.6113 17.3851 20.2371 15.7151H13.2854V10.572H20.3385H25.7729Z" fill="#518EF8"/>
<path d="M21.1398 23.1378L21.1405 23.1385C18.9126 24.9293 16.0825 26.0008 13.0017 26.0008C8.05077 26.0008 3.74635 23.2336 1.55054 19.1613L5.76355 15.7126C6.86143 18.6427 9.68797 20.7285 13.0017 20.7285C14.426 20.7285 15.7604 20.3434 16.9054 19.6713L21.1398 23.1378Z" fill="#28B446"/>
<path d="M21.2977 2.99295L17.0861 6.44092C15.901 5.7002 14.5002 5.2723 12.9995 5.2723C9.61079 5.2723 6.73139 7.45379 5.68851 10.4889L1.45335 7.02168H1.45264C3.6163 2.8501 7.97501 0 12.9995 0C16.1539 0 19.0461 1.12363 21.2977 2.99295Z" fill="#F14336"/>
</svg>
