<svg width="26" height="33" viewBox="0 0 26 33" fill="none" xmlns="http://www.w3.org/2000/svg">
<path d="M22.5656 12.1776L15.4698 6.50093C14.0831 5.39593 11.9165 5.3851 10.5406 6.4901L3.4448 12.1776C2.42646 12.9901 1.80896 14.6151 2.02563 15.8934L3.39063 24.0618C3.7048 25.8926 5.40563 27.3334 7.25813 27.3334H18.7415C20.5723 27.3334 22.3056 25.8601 22.6198 24.0509L23.9848 15.8826C24.1798 14.6151 23.5623 12.9901 22.5656 12.1776ZM13.8123 23.0001C13.8123 23.4443 13.444 23.8126 12.9998 23.8126C12.5556 23.8126 12.1873 23.4443 12.1873 23.0001V19.7501C12.1873 19.3059 12.5556 18.9376 12.9998 18.9376C13.444 18.9376 13.8123 19.3059 13.8123 19.7501V23.0001Z" fill="#1E3A8A"/>
</svg>
