<svg width="26" height="27" viewBox="0 0 26 27" fill="none" xmlns="http://www.w3.org/2000/svg">
<path d="M22.5656 9.17748L15.4698 3.50081C14.0831 2.39581 11.9165 2.38498 10.5406 3.48998L3.4448 9.17748C2.42646 9.98998 1.80896 11.615 2.02563 12.8933L3.39063 21.0616C3.7048 22.8925 5.40563 24.3333 7.25813 24.3333H18.7415C20.5723 24.3333 22.3056 22.86 22.6198 21.0508L23.9848 12.8825C24.1798 11.615 23.5623 9.98998 22.5656 9.17748ZM13.8123 20C13.8123 20.4441 13.444 20.8125 12.9998 20.8125C12.5556 20.8125 12.1873 20.4441 12.1873 20V16.75C12.1873 16.3058 12.5556 15.9375 12.9998 15.9375C13.444 15.9375 13.8123 16.3058 13.8123 16.75V20Z" fill="#6F6F6F"/>
</svg>
