<svg width="24" height="25" viewBox="0 0 24 25" fill="none" xmlns="http://www.w3.org/2000/svg">
<path d="M19.7897 4.72001C16.8297 1.77001 12.0297 1.77001 9.08966 4.72001C7.01966 6.77001 6.39966 9.72001 7.19966 12.32L2.49966 17.02C2.16966 17.36 1.93966 18.03 2.00966 18.51L2.30966 20.69C2.41966 21.41 3.08966 22.09 3.80966 22.19L5.98966 22.49C6.46966 22.56 7.13966 22.34 7.47966 21.99L8.29966 21.17C8.49966 20.98 8.49966 20.66 8.29966 20.46L6.35966 18.52C6.06966 18.23 6.06966 17.75 6.35966 17.46C6.64966 17.17 7.12966 17.17 7.41966 17.46L9.36966 19.41C9.55966 19.6 9.87966 19.6 10.0697 19.41L12.1897 17.3C14.7797 18.11 17.7297 17.48 19.7897 15.43C22.7397 12.48 22.7397 7.67001 19.7897 4.72001ZM14.4997 12.5C13.1197 12.5 11.9997 11.38 11.9997 10C11.9997 8.62001 13.1197 7.50001 14.4997 7.50001C15.8797 7.50001 16.9997 8.62001 16.9997 10C16.9997 11.38 15.8797 12.5 14.4997 12.5Z" fill="#292D32"/>
</svg>
