<svg width="24" height="25" viewBox="0 0 24 25" fill="none" xmlns="http://www.w3.org/2000/svg">
<path d="M16.8 2.5H14.2C11 2.5 9 4.5 9 7.7V11.75H15.25C15.66 11.75 16 12.09 16 12.5C16 12.91 15.66 13.25 15.25 13.25H9V17.3C9 20.5 11 22.5 14.2 22.5H16.79C19.99 22.5 21.99 20.5 21.99 17.3V7.7C22 4.5 20 2.5 16.8 2.5Z" fill="#F4F5F9"/>
<path d="M4.56043 11.75L6.63043 9.68003C6.78043 9.53003 6.85043 9.34003 6.85043 9.15003C6.85043 8.96003 6.78043 8.76003 6.63043 8.62003C6.34043 8.33003 5.86043 8.33003 5.57043 8.62003L2.22043 11.97C1.93043 12.26 1.93043 12.74 2.22043 13.03L5.57043 16.38C5.86043 16.67 6.34043 16.67 6.63043 16.38C6.92043 16.09 6.92043 15.61 6.63043 15.32L4.56043 13.25H9.00043V11.75H4.56043Z" fill="#F4F5F9"/>
</svg>
