<svg width="114" height="115" viewBox="0 0 114 115" fill="none" xmlns="http://www.w3.org/2000/svg">
<path d="M61.6069 18.0258C63.4971 18.0258 65.0295 16.4934 65.0295 14.6032C65.0295 12.7129 63.4971 11.1806 61.6069 11.1806V18.0258ZM103.819 53.3929C103.819 51.5027 102.287 49.9703 100.397 49.9703C98.5064 49.9703 96.9739 51.5027 96.9739 53.3929H103.819ZM62.6661 104.822L65.1399 100.643L59.2489 97.1558L56.7751 101.336L62.6661 104.822ZM44.3833 100.643L46.8572 104.822L52.7478 101.336L50.2739 97.1558L44.3833 100.643ZM56.7751 101.336C55.8957 102.821 53.6276 102.821 52.7478 101.336L46.8572 104.822C50.3875 110.787 59.1357 110.787 62.6661 104.822L56.7751 101.336ZM47.9164 18.0258H61.6069V11.1806H47.9164V18.0258ZM96.9739 53.3929V57.9564H103.819V53.3929H96.9739ZM12.5493 57.9564V53.3929H5.7041V57.9564H12.5493ZM5.7041 57.9564C5.7041 63.2254 5.70223 67.3485 5.92913 70.6739C6.15817 74.0303 6.63154 76.8237 7.7015 79.4066L14.0257 76.7872C13.3588 75.1772 12.9638 73.2158 12.7585 70.208C12.5512 67.1696 12.5493 63.3189 12.5493 57.9564H5.7041ZM35.6064 88.7216C29.8772 88.6226 26.8752 88.2584 24.5221 87.2836L21.9025 93.6077C25.576 95.1292 29.76 95.4669 35.4885 95.5655L35.6064 88.7216ZM7.7015 79.4066C10.3647 85.8361 15.473 90.9445 21.9025 93.6077L24.5221 87.2836C19.7698 85.315 15.9941 81.5396 14.0257 76.7872L7.7015 79.4066ZM96.9739 57.9564C96.9739 63.3189 96.9721 67.1696 96.7649 70.208C96.5596 73.2158 96.1644 75.1772 95.4977 76.7872L101.822 79.4066C102.892 76.8237 103.365 74.0303 103.594 70.6739C103.821 67.3485 103.819 63.2254 103.819 57.9564H96.9739ZM74.0346 95.5655C79.7632 95.4669 83.9474 95.1292 87.6206 93.6077L85.0012 87.2836C82.6482 88.2584 79.6459 88.6226 73.9169 88.7216L74.0346 95.5655ZM95.4977 76.7872C93.529 81.5396 89.7536 85.315 85.0012 87.2836L87.6206 93.6077C94.0501 90.9445 99.1585 85.8361 101.822 79.4066L95.4977 76.7872ZM47.9164 11.1806C40.5135 11.1806 34.7211 11.177 30.101 11.6162C25.4301 12.0604 21.6054 12.9812 18.2338 15.0473L21.8104 20.8838C23.9257 19.5876 26.5791 18.8272 30.749 18.4307C34.9698 18.0294 40.381 18.0258 47.9164 18.0258V11.1806ZM12.5493 53.3929C12.5493 45.8575 12.5529 40.4462 12.9543 36.2254C13.3507 32.0555 14.1111 29.4022 15.4074 27.2869L9.57084 23.7102C7.50472 27.0818 6.5839 30.9065 6.13978 35.5775C5.7005 40.1975 5.7041 45.99 5.7041 53.3929H12.5493ZM18.2338 15.0473C14.703 17.211 11.7345 20.1795 9.57084 23.7102L15.4074 27.2869C17.0066 24.6772 19.2007 22.4831 21.8104 20.8838L18.2338 15.0473ZM50.2739 97.1558C49.3475 95.5906 48.5343 94.2092 47.7434 93.124C46.9102 91.9813 45.955 90.9522 44.63 90.1815L41.1885 96.0989C41.4049 96.2244 41.6996 96.454 42.2114 97.1558C42.7652 97.9161 43.391 98.9662 44.3833 100.643L50.2739 97.1558ZM35.4885 95.5655C37.4922 95.6002 38.7614 95.6257 39.729 95.7325C40.633 95.8329 40.9835 95.9794 41.1885 96.0989L44.63 90.1815C43.294 89.4043 41.9038 89.0862 40.4823 88.9288C39.1243 88.7786 37.4831 88.754 35.6064 88.7216L35.4885 95.5655ZM65.1399 100.643C66.132 98.9662 66.7577 97.9161 67.3117 97.1558C67.8233 96.454 68.1181 96.2244 68.3344 96.0989L64.8931 90.1815C63.5683 90.9522 62.6127 91.9813 61.7798 93.124C60.989 94.2092 60.1758 95.5906 59.2489 97.1558L65.1399 100.643ZM73.9169 88.7216C72.0399 88.754 70.3989 88.7786 69.0408 88.9288C67.6193 89.0862 66.2292 89.4043 64.8931 90.1815L68.3344 96.0989C68.5397 95.9794 68.8902 95.8329 69.7942 95.7325C70.7617 95.6257 72.0308 95.6002 74.0346 95.5655L73.9169 88.7216Z" fill="#6F6F6F"/>
<path d="M83.5113 40.1636V30.124M83.5113 20.0843H83.5364M108.611 30.124C108.611 43.9859 97.3732 55.2232 83.5113 55.2232C69.6494 55.2232 58.4121 43.9859 58.4121 30.124C58.4121 16.262 69.6494 5.02475 83.5113 5.02475C97.3732 5.02475 108.611 16.262 108.611 30.124Z" stroke="#6F6F6F" stroke-width="4" stroke-linecap="round" stroke-linejoin="round"/>
</svg>
