<svg width="109" height="115" viewBox="0 0 109 115" fill="none" xmlns="http://www.w3.org/2000/svg">
<path d="M105.416 28.75V40.3459C105.416 47.9167 100.624 52.7084 93.0535 52.7084H76.666V19.2146C76.666 13.8959 81.0264 9.58337 86.3452 9.58337C91.5681 9.63129 96.3598 11.7396 99.8098 15.1896C103.26 18.6875 105.416 23.4792 105.416 28.75Z" stroke="#6F6F6F" stroke-width="5.5625" stroke-miterlimit="10" stroke-linecap="round" stroke-linejoin="round"/>
<path d="M9.58398 33.5417V100.625C9.58398 104.602 14.0881 106.854 17.2506 104.458L25.4444 98.325C27.3611 96.8875 30.0444 97.0792 31.7694 98.8042L39.7236 106.806C41.5923 108.675 44.659 108.675 46.5277 106.806L54.5777 98.7563C56.2548 97.0792 58.9382 96.8875 60.8069 98.325L69.0007 104.458C72.1632 106.806 76.6673 104.554 76.6673 100.625V19.1667C76.6673 13.8959 80.9798 9.58337 86.2506 9.58337H33.5423H28.7507C14.3757 9.58337 9.58398 18.1605 9.58398 28.75V33.5417Z" stroke="#6F6F6F" stroke-width="5.5625" stroke-miterlimit="10" stroke-linecap="round" stroke-linejoin="round"/>
<path d="M29.9473 47.9166H56.3014" stroke="#6F6F6F" stroke-width="5.5625" stroke-linecap="round" stroke-linejoin="round"/>
</svg>
