<svg width="26" height="26" viewBox="0 0 26 26" fill="none" xmlns="http://www.w3.org/2000/svg">
<g clip-path="url(#clip0_258_454)">
<path d="M9.75017 10.8333V10.1378C10.5215 9.93742 11.2148 9.54092 11.7565 8.98842L12.4585 9.39358C12.6297 9.49217 12.8149 9.53875 12.9991 9.53875C13.3739 9.53875 13.7379 9.34375 13.9383 8.99708C14.2373 8.47817 14.0586 7.81517 13.5418 7.51725L12.8268 7.1045C12.9287 6.73725 13.0002 6.35808 13.0002 5.95833C13.0002 5.55858 12.9287 5.17942 12.8268 4.81217L13.5418 4.39942C14.0597 4.1015 14.2384 3.43742 13.9383 2.91958C13.6383 2.40175 12.9763 2.22408 12.4585 2.52308L11.7565 2.92825C11.2148 2.37575 10.5215 1.97925 9.75017 1.77883V1.08333C9.75017 0.48425 9.26592 0 8.66683 0C8.06775 0 7.5835 0.48425 7.5835 1.08333V1.77883C6.81217 1.97925 6.11883 2.37575 5.57717 2.92825L4.87517 2.52308C4.35517 2.22517 3.69433 2.40283 3.39533 2.91958C3.09633 3.4385 3.27508 4.1015 3.79183 4.39942L4.50683 4.81217C4.405 5.17942 4.3335 5.55858 4.3335 5.95833C4.3335 6.35808 4.405 6.73725 4.50683 7.1045L3.79183 7.51725C3.274 7.81517 3.09525 8.47925 3.39533 8.99708C3.59683 9.34375 3.95975 9.53875 4.33458 9.53875C4.51875 9.53875 4.704 9.49217 4.87517 9.39358L5.57717 8.98842C6.11883 9.54092 6.81217 9.93742 7.5835 10.1378V10.8333C7.5835 11.4324 8.06775 11.9167 8.66683 11.9167C9.26592 11.9167 9.75017 11.4324 9.75017 10.8333ZM6.50017 5.95833C6.50017 4.76342 7.47192 3.79167 8.66683 3.79167C9.86175 3.79167 10.8335 4.76342 10.8335 5.95833C10.8335 7.15325 9.86175 8.125 8.66683 8.125C7.47192 8.125 6.50017 7.15325 6.50017 5.95833ZM25.2863 13.3738L16.9424 22.4835C14.8906 24.7238 11.9916 26 8.95392 26H4.33675C1.94367 26 0.00341797 24.0598 0.00341797 21.6667V16.25C0.00341797 13.8569 1.94367 11.9167 4.33675 11.9167H12.7727C14.2612 11.9167 15.4377 13.2817 15.117 14.8254C14.9079 15.8286 14.0293 16.5566 13.0153 16.7017L8.5065 17.3333C7.91392 17.4178 7.50225 17.9671 7.58784 18.5586C7.67234 19.1512 8.22159 19.5618 8.81308 19.4773L13.4194 18.8316C15.6533 18.5131 17.3378 16.5707 17.3378 14.3141C17.3378 14.0768 17.3032 13.8493 17.2674 13.6229L21.1035 9.5745C21.5964 9.03283 22.2919 8.70458 23.047 8.66992C23.7967 8.63308 24.5236 8.89633 25.0815 9.40442C26.2212 10.4423 26.3143 12.2222 25.2863 13.3738Z" fill="#6F6F6F"/>
</g>
<defs>
<clipPath id="clip0_258_454">
<rect width="26" height="26" fill="white"/>
</clipPath>
</defs>
</svg>
