<svg width="68" height="68" viewBox="0 0 68 68" fill="none" xmlns="http://www.w3.org/2000/svg">
<path d="M52.3316 5.66663H40.9983C36.4619 5.66663 32.7689 9.85753 32.5125 14.3751C32.4969 14.6508 32.7221 14.875 32.9983 14.875H46.665C47.8266 14.875 48.79 15.8383 48.79 17C48.79 18.1616 47.8266 19.125 46.665 19.125H32.9983C32.7221 19.125 32.4983 19.3488 32.4983 19.625V25.7083C32.4983 25.9844 32.7221 26.2083 32.9983 26.2083H40.46C41.6216 26.2083 42.585 27.1716 42.585 28.3333C42.585 29.495 41.6216 30.4583 40.46 30.4583H32.9983C32.7221 30.4583 32.4983 30.6821 32.4983 30.9583V36.9049C32.4983 37.1791 32.7191 37.4022 32.9933 37.4049L46.665 37.5416C47.855 37.5416 48.79 38.505 48.79 39.695C48.7616 40.8566 47.8266 41.7916 46.665 41.7916C46.6366 41.7916 46.6366 41.7916 46.6366 41.7916L33.0033 41.655C32.7252 41.6522 32.4983 41.8769 32.4983 42.155V48.375C32.4983 48.6511 32.7221 48.875 32.9983 48.875H43.5483C44.7383 48.875 45.6733 49.8383 45.6733 51C45.6733 52.1616 44.7383 53.125 43.5483 53.125H32.9983C32.7221 53.125 32.4969 53.3491 32.5125 53.6248C32.7689 58.1424 36.4619 62.3333 40.9983 62.3333H52.3316C57.0066 62.3333 60.8316 58.5366 60.8316 53.8333V14.1666C60.8316 9.46329 57.0066 5.66663 52.3316 5.66663Z" fill="#F4F5F9"/>
<path d="M23.9132 14.025V17.2083C23.9132 17.4844 23.6894 17.7083 23.4132 17.7083H7.66821C7.39207 17.7083 7.16821 17.4844 7.16821 17.2083V14.025C7.16821 9.43496 10.9365 5.66663 15.5549 5.66663C20.1449 5.66663 23.9132 9.43496 23.9132 14.025Z" fill="#F4F5F9"/>
<path d="M7.16821 50.745C7.16821 52.02 7.70655 53.975 8.38655 55.0517L10.6815 58.905C13.3732 63.3817 17.7365 63.3817 20.3999 58.905L22.7232 55.0517C23.3749 53.975 23.9132 52.02 23.9132 50.745V22.4584C23.9132 22.1822 23.6894 21.9584 23.4132 21.9584H7.66821C7.39207 21.9584 7.16821 22.1822 7.16821 22.4584V50.745Z" fill="#F4F5F9"/>
</svg>
