<svg width="26" height="26" viewBox="0 0 26 26" fill="none" xmlns="http://www.w3.org/2000/svg">
<path d="M13.9645 6.37H5.53616C3.68366 6.37 2.16699 7.88666 2.16699 9.73916V22.0458C2.16699 23.6167 3.29366 24.2883 4.66949 23.5192L8.92699 21.1467C9.38199 20.8975 10.1187 20.8975 10.5628 21.1467L14.8203 23.5192C16.207 24.2775 17.3337 23.6167 17.3337 22.0458V9.73916C17.3337 7.88666 15.817 6.37 13.9645 6.37Z" fill="#1E3A8A"/>
<path d="M23.8333 5.53582V17.8425C23.8333 19.4133 22.7067 20.0742 21.3308 19.3158L19.24 18.1458C19.0667 18.0483 18.9583 17.8642 18.9583 17.6692V9.73916C18.9583 6.98749 16.7158 4.74499 13.9642 4.74499H9.55499C9.15416 4.74499 8.87249 4.32249 9.05666 3.97582C9.61999 2.90332 10.7467 2.16666 12.0358 2.16666H20.4642C22.3167 2.16666 23.8333 3.68332 23.8333 5.53582Z" fill="#1E3A8A"/>
</svg>
