<svg width="26" height="26" viewBox="0 0 26 26" fill="none" xmlns="http://www.w3.org/2000/svg">
<path d="M20.0091 2.16675H15.6758C14.0446 2.16675 12.6987 3.58387 12.4625 5.18933C12.4223 5.46253 12.6496 5.68758 12.9258 5.68758H17.8424C18.2866 5.68758 18.6549 6.05591 18.6549 6.50008C18.6549 6.94425 18.2866 7.31258 17.8424 7.31258H12.9258C12.6496 7.31258 12.4258 7.53644 12.4258 7.81258V9.52092C12.4258 9.79706 12.6496 10.0209 12.9258 10.0209H15.4699C15.9141 10.0209 16.2824 10.3892 16.2824 10.8334C16.2824 11.2776 15.9141 11.6459 15.4699 11.6459H12.9258C12.6496 11.6459 12.4258 11.8698 12.4258 12.1459V13.8051C12.4258 14.0792 12.6466 14.3023 12.9208 14.305L17.8424 14.3542C18.2974 14.3542 18.6549 14.7226 18.6549 15.1776C18.6441 15.6217 18.2866 15.9792 17.8424 15.9792C17.8316 15.9792 17.8316 15.9792 17.8316 15.9792L12.9308 15.9301C12.6527 15.9274 12.4258 16.152 12.4258 16.4301V18.1876C12.4258 18.4637 12.6496 18.6876 12.9258 18.6876H16.6508C17.1058 18.6876 17.4633 19.0559 17.4633 19.5001C17.4633 19.9442 17.1058 20.3126 16.6508 20.3126H12.9258C12.6496 20.3126 12.4223 20.5376 12.4625 20.8108C12.6987 22.4163 14.0446 23.8334 15.6758 23.8334H20.0091C21.7966 23.8334 23.2591 22.3817 23.2591 20.5834V5.41675C23.2591 3.61841 21.7966 2.16675 20.0091 2.16675Z" fill="#6F6F6F"/>
<path d="M9.14322 5.36258V6.27091C9.14322 6.54706 8.91936 6.77092 8.64322 6.77092H3.24072C2.96458 6.77092 2.74072 6.54706 2.74072 6.27092V5.36258C2.74072 3.60758 4.18156 2.16675 5.94739 2.16675C7.70239 2.16675 9.14322 3.60758 9.14322 5.36258Z" fill="#6F6F6F"/>
<path d="M2.74072 19.4024C2.74072 19.8899 2.94656 20.6374 3.20656 21.0491L4.08406 22.5224C5.11322 24.2341 6.78156 24.2341 7.79989 22.5224L8.68822 21.0491C8.93739 20.6374 9.14322 19.8899 9.14322 19.4024V8.89575C9.14322 8.61961 8.91936 8.39575 8.64322 8.39575H3.24072C2.96458 8.39575 2.74072 8.61961 2.74072 8.89575V19.4024Z" fill="#6F6F6F"/>
</svg>
