<svg width="26" height="26" viewBox="0 0 26 26" fill="none" xmlns="http://www.w3.org/2000/svg">
<path d="M20.0091 2.16669H15.6758C14.0446 2.16669 12.6987 3.58381 12.4625 5.18927C12.4223 5.46247 12.6496 5.68752 12.9258 5.68752H17.8424C18.2866 5.68752 18.6549 6.05585 18.6549 6.50002C18.6549 6.94419 18.2866 7.31252 17.8424 7.31252H12.9258C12.6496 7.31252 12.4258 7.53638 12.4258 7.81252V9.52085C12.4258 9.797 12.6496 10.0209 12.9258 10.0209H15.4699C15.9141 10.0209 16.2824 10.3892 16.2824 10.8334C16.2824 11.2775 15.9141 11.6459 15.4699 11.6459H12.9258C12.6496 11.6459 12.4258 11.8697 12.4258 12.1459V13.805C12.4258 14.0792 12.6466 14.3022 12.9208 14.305L17.8424 14.3542C18.2974 14.3542 18.6549 14.7225 18.6549 15.1775C18.6441 15.6217 18.2866 15.9792 17.8424 15.9792C17.8316 15.9792 17.8316 15.9792 17.8316 15.9792L12.9308 15.9301C12.6527 15.9273 12.4258 16.152 12.4258 16.4301V18.1875C12.4258 18.4637 12.6496 18.6875 12.9258 18.6875H16.6508C17.1058 18.6875 17.4633 19.0559 17.4633 19.5C17.4633 19.9442 17.1058 20.3125 16.6508 20.3125H12.9258C12.6496 20.3125 12.4223 20.5376 12.4625 20.8108C12.6987 22.4162 14.0446 23.8334 15.6758 23.8334H20.0091C21.7966 23.8334 23.2591 22.3817 23.2591 20.5834V5.41669C23.2591 3.61835 21.7966 2.16669 20.0091 2.16669Z" fill="#1E3A8A"/>
<path d="M9.14371 5.36252V6.27085C9.14371 6.547 8.91985 6.77085 8.64371 6.77085H3.24121C2.96507 6.77085 2.74121 6.547 2.74121 6.27085V5.36252C2.74121 3.60752 4.18204 2.16669 5.94788 2.16669C7.70288 2.16669 9.14371 3.60752 9.14371 5.36252Z" fill="#1E3A8A"/>
<path d="M2.74121 19.4025C2.74121 19.89 2.94704 20.6375 3.20704 21.0491L4.08454 22.5225C5.11371 24.2341 6.78204 24.2341 7.80038 22.5225L8.68871 21.0491C8.93788 20.6375 9.14371 19.89 9.14371 19.4025V8.89581C9.14371 8.61967 8.91985 8.39581 8.64371 8.39581H3.24121C2.96507 8.39581 2.74121 8.61967 2.74121 8.89581V19.4025Z" fill="#1E3A8A"/>
</svg>
