<svg width="26" height="27" viewBox="0 0 26 27" fill="none" xmlns="http://www.w3.org/2000/svg">
<path d="M2.16699 14.4533V12.5467C2.16699 11.42 3.08783 10.4883 4.22533 10.4883C6.18616 10.4883 6.98782 9.10168 6.00199 7.40085C5.43866 6.42585 5.77449 5.15835 6.76032 4.59501L8.63449 3.52251C9.49032 3.01335 10.5953 3.31668 11.1045 4.17251L11.2237 4.37835C12.1987 6.07918 13.802 6.07918 14.7878 4.37835L14.907 4.17251C15.4162 3.31668 16.5212 3.01335 17.377 3.52251L19.2512 4.59501C20.237 5.15835 20.5728 6.42585 20.0095 7.40085C19.0237 9.10168 19.8253 10.4883 21.7862 10.4883C22.9128 10.4883 23.8445 11.4092 23.8445 12.5467V14.4533C23.8445 15.58 22.9237 16.5117 21.7862 16.5117C19.8253 16.5117 19.0237 17.8983 20.0095 19.5992C20.5728 20.585 20.237 21.8417 19.2512 22.405L17.377 23.4775C16.5212 23.9867 15.4162 23.6833 14.907 22.8275L14.7878 22.6217C13.8128 20.9208 12.2095 20.9208 11.2237 22.6217L11.1045 22.8275C10.5953 23.6833 9.49032 23.9867 8.63449 23.4775L6.76032 22.405C5.77449 21.8417 5.43866 20.5742 6.00199 19.5992C6.98782 17.8983 6.18616 16.5117 4.22533 16.5117C3.08783 16.5117 2.16699 15.58 2.16699 14.4533Z" fill="#1E3A8A" stroke="#1E3A8A" stroke-width="1.5" stroke-miterlimit="10" stroke-linecap="round" stroke-linejoin="round"/>
<path d="M13 16.75C14.7949 16.75 16.25 15.2949 16.25 13.5C16.25 11.7051 14.7949 10.25 13 10.25C11.2051 10.25 9.75 11.7051 9.75 13.5C9.75 15.2949 11.2051 16.75 13 16.75Z" stroke="white" stroke-width="1.5" stroke-miterlimit="10" stroke-linecap="round" stroke-linejoin="round"/>
</svg>
