<svg width="26" height="33" viewBox="0 0 26 33" fill="none" xmlns="http://www.w3.org/2000/svg">
<path d="M2.16699 17.4533V15.5467C2.16699 14.42 3.08783 13.4883 4.22533 13.4883C6.18616 13.4883 6.98782 12.1017 6.00199 10.4008C5.43866 9.42585 5.77449 8.15835 6.76032 7.59501L8.63449 6.52251C9.49032 6.01335 10.5953 6.31668 11.1045 7.17251L11.2237 7.37835C12.1987 9.07918 13.802 9.07918 14.7878 7.37835L14.907 7.17251C15.4162 6.31668 16.5212 6.01335 17.377 6.52251L19.2512 7.59501C20.237 8.15835 20.5728 9.42585 20.0095 10.4008C19.0237 12.1017 19.8253 13.4883 21.7862 13.4883C22.9128 13.4883 23.8445 14.4092 23.8445 15.5467V17.4533C23.8445 18.58 22.9237 19.5117 21.7862 19.5117C19.8253 19.5117 19.0237 20.8983 20.0095 22.5992C20.5728 23.585 20.237 24.8417 19.2512 25.405L17.377 26.4775C16.5212 26.9867 15.4162 26.6833 14.907 25.8275L14.7878 25.6217C13.8128 23.9208 12.2095 23.9208 11.2237 25.6217L11.1045 25.8275C10.5953 26.6833 9.49032 26.9867 8.63449 26.4775L6.76032 25.405C5.77449 24.8417 5.43866 23.5742 6.00199 22.5992C6.98782 20.8983 6.18616 19.5117 4.22533 19.5117C3.08783 19.5117 2.16699 18.58 2.16699 17.4533Z" fill="#6F6F6F" stroke="#6F6F6F" stroke-width="1.5" stroke-miterlimit="10" stroke-linecap="round" stroke-linejoin="round"/>
<path d="M13 19.75C14.7949 19.75 16.25 18.2949 16.25 16.5C16.25 14.7051 14.7949 13.25 13 13.25C11.2051 13.25 9.75 14.7051 9.75 16.5C9.75 18.2949 11.2051 19.75 13 19.75Z" stroke="white" stroke-width="1.5" stroke-miterlimit="10" stroke-linecap="round" stroke-linejoin="round"/>
</svg>
