<svg width="24" height="24" viewBox="0 0 24 24" fill="none" xmlns="http://www.w3.org/2000/svg">
<path d="M18.5398 4.17001L13.0398 2.11001C12.4698 1.90001 11.5398 1.90001 10.9698 2.11001L5.4698 4.17001C4.4098 4.57001 3.5498 5.81001 3.5498 6.94001V15.04C3.5498 15.85 4.0798 16.92 4.7298 17.4L10.2298 21.51C11.1998 22.24 12.7898 22.24 13.7598 21.51L19.2598 17.4C19.9098 16.91 20.4398 15.85 20.4398 15.04V6.94001C20.4498 5.81001 19.5898 4.57001 18.5398 4.17001ZM12.7498 12.87V15.5C12.7498 15.91 12.4098 16.25 11.9998 16.25C11.5898 16.25 11.2498 15.91 11.2498 15.5V12.87C10.2398 12.55 9.4998 11.61 9.4998 10.5C9.4998 9.12001 10.6198 8.00001 11.9998 8.00001C13.3798 8.00001 14.4998 9.12001 14.4998 10.5C14.4998 11.62 13.7598 12.55 12.7498 12.87Z" fill="#323232"/>
</svg>
